<?xml version="1.0" encoding="UTF-8" standalone="no"?><!DOCTYPE svg PUBLIC "-//W3C//DTD SVG 1.1//EN" "http://www.w3.org/Graphics/SVG/1.1/DTD/svg11.dtd"><svg width="100%" height="100%" viewBox="0 0 683 463" version="1.1" xmlns="http://www.w3.org/2000/svg" xmlns:xlink="http://www.w3.org/1999/xlink" xml:space="preserve" xmlns:serif="http://www.serif.com/" style="fill-rule:evenodd;clip-rule:evenodd;stroke-linejoin:round;stroke-miterlimit:2;"><rect id="Artboard1" x="0" y="0" width="682.529" height="462.755" style="fill:none;"/><g><path d="M569.984,275.789c-0,-8.945 -7.262,-16.208 -16.208,-16.208l-477.147,0c-8.945,0 -16.208,7.263 -16.208,16.208c0,8.945 7.263,16.207 16.208,16.207l477.147,0c8.946,0 16.208,-7.262 16.208,-16.207Zm-0,-65.058c-0,-8.945 -7.262,-16.208 -16.208,-16.208l-477.147,0c-8.945,0 -16.208,7.263 -16.208,16.208c0,8.945 7.263,16.207 16.208,16.207l477.147,0c8.946,0 16.208,-7.262 16.208,-16.207Zm-0,-65.058c-0,-8.946 -7.262,-16.208 -16.208,-16.208l-477.147,0c-8.945,0 -16.208,7.262 -16.208,16.208c0,8.945 7.263,16.207 16.208,16.207l477.147,0c8.946,0 16.208,-7.262 16.208,-16.207Z" style="fill:#1d1d1d;"/><clipPath id="_clip1"><path d="M569.984,275.789c-0,-8.945 -7.262,-16.208 -16.208,-16.208l-477.147,0c-8.945,0 -16.208,7.263 -16.208,16.208c0,8.945 7.263,16.207 16.208,16.207l477.147,0c8.946,0 16.208,-7.262 16.208,-16.207Zm-0,-65.058c-0,-8.945 -7.262,-16.208 -16.208,-16.208l-477.147,0c-8.945,0 -16.208,7.263 -16.208,16.208c0,8.945 7.263,16.207 16.208,16.207l477.147,0c8.946,0 16.208,-7.262 16.208,-16.207Zm-0,-65.058c-0,-8.946 -7.262,-16.208 -16.208,-16.208l-477.147,0c-8.945,0 -16.208,7.262 -16.208,16.208c0,8.945 7.263,16.207 16.208,16.207l477.147,0c8.946,0 16.208,-7.262 16.208,-16.207Z"/></clipPath><g clip-path="url(#_clip1)"><rect x="12.032" y="71.865" width="290.77" height="252.774" style="fill:#ff4c4d;"/></g></g><path d="M362.86,340.847c0,-8.945 -7.262,-16.208 -16.207,-16.208l-270.024,0c-8.945,0 -16.208,7.263 -16.208,16.208c0,8.945 7.263,16.207 16.208,16.207l270.024,0c8.945,0 16.207,-7.262 16.207,-16.207Z" style="fill:#1d1d1d;"/><text x="58.594px" y="84.457px" style="font-family:'Roboto-Black', 'Roboto';font-weight:900;font-size:34.02px;">Flash Dur<tspan x="203.279px " y="84.457px ">a</tspan>tion</text><text x="383.488px" y="84.805px" style="font-family:'Roboto-Black', 'Roboto';font-weight:900;font-size:34.02px;">Flash Offset</text><g transform="matrix(1.56645e-16,1,-1,1.56645e-16,592.854,-1150.89)"><text x="1306.87px" y="-14.967px" style="font-family:'Roboto-Black', 'Roboto';font-weight:900;font-size:34.02px;">Repeat</text></g><text x="62.033px" y="410.228px" style="font-family:'Roboto-Black', 'Roboto';font-weight:900;font-size:34.02px;">Repeat Offset</text><text x="78.393px" y="154.023px" style="font-family:'Roboto-Bold', 'Roboto';font-weight:700;font-size:24.105px;fill:#fff;">ON</text><text x="314.19px" y="154.023px" style="font-family:'Roboto-Bold', 'Roboto';font-weight:700;font-size:24.105px;fill:#fff;">OFF</text><text x="78.393px" y="219.299px" style="font-family:'Roboto-Bold', 'Roboto';font-weight:700;font-size:24.105px;fill:#fff;">ON</text><text x="314.19px" y="219.299px" style="font-family:'Roboto-Bold', 'Roboto';font-weight:700;font-size:24.105px;fill:#fff;">OFF</text><text x="78.393px" y="284.576px" style="font-family:'Roboto-Bold', 'Roboto';font-weight:700;font-size:24.105px;fill:#fff;">ON</text><text x="314.19px" y="284.576px" style="font-family:'Roboto-Bold', 'Roboto';font-weight:700;font-size:24.105px;fill:#fff;">OFF</text><text x="78.393px" y="349.415px" style="font-family:'Roboto-Bold', 'Roboto';font-weight:700;font-size:24.105px;fill:#fff;">ON</text></svg>